<?xml version="1.0" standalone="no"?>
<!DOCTYPE svg PUBLIC "-//W3C//DTD SVG 20010904//EN"
 "http://www.w3.org/TR/2001/REC-SVG-20010904/DTD/svg10.dtd">
<svg version="1.0" xmlns="http://www.w3.org/2000/svg"
 width="600.000000pt" height="600.000000pt" viewBox="0 0 600.000000 600.000000"
 preserveAspectRatio="xMidYMid meet">
<metadata>
Created by potrace 1.14, written by Peter Selinger 2001-2017
</metadata>
<g transform="translate(0.000000,600.000000) scale(0.100000,-0.100000)"
fill="#000000" stroke="none">
<path d="M2175 5421 c-24 -10 -94 -85 -150 -161 -134 -181 -213 -358 -236
-529 -14 -103 -6 -324 14 -396 37 -130 136 -339 181 -380 6 -5 42 -51 79 -102
72 -95 107 -120 153 -109 53 14 94 78 80 129 -3 12 -39 64 -80 115 -41 51 -81
105 -89 120 -8 15 -29 52 -46 83 -17 31 -45 100 -62 155 -29 90 -32 111 -32
229 -1 114 3 141 27 220 43 143 104 248 238 413 71 88 80 114 56 167 -20 45
-82 66 -133 46z"/>
<path d="M3708 5415 c-44 -24 -56 -108 -21 -150 126 -154 161 -204 205 -283
71 -132 109 -268 109 -397 0 -134 -37 -289 -95 -390 -12 -22 -33 -58 -45 -79
-18 -32 -48 -75 -98 -141 -5 -6 -23 -27 -40 -48 -44 -51 -45 -103 -4 -149 24
-27 36 -33 69 -33 47 0 67 16 148 117 205 255 297 544 265 829 -17 151 -78
323 -155 443 -18 28 -40 62 -48 76 -31 49 -157 194 -180 206 -30 17 -77 17
-110 -1z"/>
<path d="M3383 5100 c-54 -33 -61 -114 -14 -164 32 -34 98 -158 115 -216 23
-76 21 -196 -5 -273 -19 -59 -70 -150 -124 -226 -27 -37 -31 -67 -14 -104 13
-29 58 -57 94 -57 58 0 92 35 187 190 27 45 69 181 80 263 21 145 -20 316
-108 461 -87 143 -136 172 -211 126z"/>
<path d="M2493 5095 c-45 -32 -136 -177 -168 -270 -77 -222 -44 -443 100 -660
61 -92 102 -115 161 -90 34 14 50 35 58 78 3 20 -9 48 -54 115 -112 169 -142
347 -83 492 4 8 7 17 7 20 5 19 74 135 94 157 33 35 40 92 16 131 -25 43 -89
57 -131 27z"/>
<path d="M2912 4807 c-18 -5 -53 -28 -77 -49 -92 -81 -99 -235 -16 -324 19
-20 45 -42 58 -51 l23 -15 0 -637 0 -636 -214 -3 -214 -4 -79 79 c-43 43 -104
93 -135 112 -328 193 -737 141 -993 -124 -37 -38 -74 -67 -96 -74 -100 -32
-316 -357 -448 -675 -37 -88 -126 -351 -136 -400 -3 -10 -11 -42 -19 -70 -21
-74 -73 -331 -81 -401 -4 -33 -9 -62 -10 -65 -2 -3 -6 -37 -10 -75 -4 -39 -9
-81 -11 -95 -9 -49 -12 -456 -4 -535 12 -121 20 -176 32 -220 5 -22 11 -47 13
-56 31 -157 135 -339 236 -408 82 -57 142 -74 244 -68 138 7 257 62 428 198
91 73 478 464 556 564 35 44 71 82 80 85 9 3 447 5 974 5 l957 -1 67 -84 c85
-107 482 -508 569 -575 36 -27 75 -58 87 -68 35 -30 197 -104 255 -117 30 -7
88 -10 131 -8 114 7 206 59 286 163 58 76 118 210 141 315 4 19 9 40 11 45 1
6 10 53 19 105 18 106 27 494 14 615 -5 39 -11 97 -14 130 -10 97 -30 222 -61
380 -7 38 -53 220 -65 260 -114 381 -245 665 -408 883 -88 118 -142 169 -184
177 -21 4 -38 10 -38 14 0 11 -91 105 -135 138 -181 139 -436 189 -678 134
-132 -30 -263 -105 -363 -208 l-72 -73 -221 0 -221 0 0 638 0 638 53 46 c60
52 77 92 77 180 0 97 -41 163 -124 203 -57 27 -125 31 -184 12z"/>
</g>
</svg>
